<mxfile host="app.diagrams.net" modified="2022-05-23T14:14:48.518Z" agent="5.0 (Macintosh; Intel Mac OS X 10_15_7) AppleWebKit/537.36 (KHTML, like Gecko) Chrome/101.0.4951.64 Safari/537.36" etag="Huhwu2m935IpLc3eAJiE" version="17.4.1" type="github">
  <diagram id="ydurFC6fkpIfWWO78KGi" name="第 1 页">
    <mxGraphModel dx="946" dy="521" grid="1" gridSize="10" guides="1" tooltips="1" connect="1" arrows="1" fold="1" page="1" pageScale="1" pageWidth="827" pageHeight="1169" math="0" shadow="0">
      <root>
        <mxCell id="0" />
        <mxCell id="1" parent="0" />
        <mxCell id="0BbyKiXWCxKaoy59D5gy-1" value="ChessCore" style="swimlane;childLayout=stackLayout;resizeParent=1;resizeParentMax=0;horizontal=1;startSize=20;horizontalStack=0;" parent="1" vertex="1">
          <mxGeometry x="27" y="60" width="800" height="920" as="geometry" />
        </mxCell>
        <mxCell id="0BbyKiXWCxKaoy59D5gy-2" value="Game" style="swimlane;startSize=20;horizontal=0;" parent="0BbyKiXWCxKaoy59D5gy-1" vertex="1">
          <mxGeometry y="20" width="800" height="300" as="geometry" />
        </mxCell>
        <mxCell id="0BbyKiXWCxKaoy59D5gy-5" value="GameModel" style="rounded=1;whiteSpace=wrap;html=1;" parent="0BbyKiXWCxKaoy59D5gy-2" vertex="1">
          <mxGeometry x="443" y="70" width="120" height="60" as="geometry" />
        </mxCell>
        <mxCell id="SKzDFnQWlSCoSe0o_-la-2" style="edgeStyle=orthogonalEdgeStyle;rounded=0;orthogonalLoop=1;jettySize=auto;html=1;entryX=0;entryY=0.5;entryDx=0;entryDy=0;" edge="1" parent="0BbyKiXWCxKaoy59D5gy-2" source="SKzDFnQWlSCoSe0o_-la-1" target="0BbyKiXWCxKaoy59D5gy-5">
          <mxGeometry relative="1" as="geometry" />
        </mxCell>
        <mxCell id="SKzDFnQWlSCoSe0o_-la-1" value="Game" style="rounded=1;whiteSpace=wrap;html=1;" vertex="1" parent="0BbyKiXWCxKaoy59D5gy-2">
          <mxGeometry x="63" y="70" width="120" height="60" as="geometry" />
        </mxCell>
        <mxCell id="SKzDFnQWlSCoSe0o_-la-10" value="GameModel" style="swimlane;fontStyle=0;childLayout=stackLayout;horizontal=1;startSize=26;fillColor=none;horizontalStack=0;resizeParent=1;resizeParentMax=0;resizeLast=0;collapsible=1;marginBottom=0;" vertex="1" parent="0BbyKiXWCxKaoy59D5gy-2">
          <mxGeometry x="43" y="170" width="140" height="104" as="geometry" />
        </mxCell>
        <mxCell id="SKzDFnQWlSCoSe0o_-la-11" value="factions: Faction[]" style="text;strokeColor=none;fillColor=none;align=left;verticalAlign=top;spacingLeft=4;spacingRight=4;overflow=hidden;rotatable=0;points=[[0,0.5],[1,0.5]];portConstraint=eastwest;" vertex="1" parent="SKzDFnQWlSCoSe0o_-la-10">
          <mxGeometry y="26" width="140" height="26" as="geometry" />
        </mxCell>
        <mxCell id="SKzDFnQWlSCoSe0o_-la-12" value="+ field: type" style="text;strokeColor=none;fillColor=none;align=left;verticalAlign=top;spacingLeft=4;spacingRight=4;overflow=hidden;rotatable=0;points=[[0,0.5],[1,0.5]];portConstraint=eastwest;" vertex="1" parent="SKzDFnQWlSCoSe0o_-la-10">
          <mxGeometry y="52" width="140" height="26" as="geometry" />
        </mxCell>
        <mxCell id="SKzDFnQWlSCoSe0o_-la-13" value="+ field: type" style="text;strokeColor=none;fillColor=none;align=left;verticalAlign=top;spacingLeft=4;spacingRight=4;overflow=hidden;rotatable=0;points=[[0,0.5],[1,0.5]];portConstraint=eastwest;" vertex="1" parent="SKzDFnQWlSCoSe0o_-la-10">
          <mxGeometry y="78" width="140" height="26" as="geometry" />
        </mxCell>
        <mxCell id="0BbyKiXWCxKaoy59D5gy-3" value="Interaction" style="swimlane;startSize=20;horizontal=0;" parent="0BbyKiXWCxKaoy59D5gy-1" vertex="1">
          <mxGeometry y="320" width="800" height="300" as="geometry" />
        </mxCell>
        <mxCell id="SKzDFnQWlSCoSe0o_-la-20" style="edgeStyle=orthogonalEdgeStyle;rounded=0;orthogonalLoop=1;jettySize=auto;html=1;entryX=0;entryY=0.096;entryDx=0;entryDy=0;entryPerimeter=0;" edge="1" parent="0BbyKiXWCxKaoy59D5gy-1" source="SKzDFnQWlSCoSe0o_-la-11" target="SKzDFnQWlSCoSe0o_-la-6">
          <mxGeometry relative="1" as="geometry" />
        </mxCell>
        <mxCell id="0BbyKiXWCxKaoy59D5gy-4" value="Model" style="swimlane;startSize=20;horizontal=0;" parent="0BbyKiXWCxKaoy59D5gy-1" vertex="1">
          <mxGeometry y="620" width="800" height="300" as="geometry" />
        </mxCell>
        <mxCell id="SKzDFnQWlSCoSe0o_-la-6" value="Faction" style="swimlane;fontStyle=0;childLayout=stackLayout;horizontal=1;startSize=26;fillColor=none;horizontalStack=0;resizeParent=1;resizeParentMax=0;resizeLast=0;collapsible=1;marginBottom=0;" vertex="1" parent="0BbyKiXWCxKaoy59D5gy-4">
          <mxGeometry x="43" y="40" width="140" height="104" as="geometry" />
        </mxCell>
        <mxCell id="SKzDFnQWlSCoSe0o_-la-7" value="chessmans: Map" style="text;strokeColor=none;fillColor=none;align=left;verticalAlign=top;spacingLeft=4;spacingRight=4;overflow=hidden;rotatable=0;points=[[0,0.5],[1,0.5]];portConstraint=eastwest;" vertex="1" parent="SKzDFnQWlSCoSe0o_-la-6">
          <mxGeometry y="26" width="140" height="26" as="geometry" />
        </mxCell>
        <mxCell id="SKzDFnQWlSCoSe0o_-la-8" value="+ field: type" style="text;strokeColor=none;fillColor=none;align=left;verticalAlign=top;spacingLeft=4;spacingRight=4;overflow=hidden;rotatable=0;points=[[0,0.5],[1,0.5]];portConstraint=eastwest;" vertex="1" parent="SKzDFnQWlSCoSe0o_-la-6">
          <mxGeometry y="52" width="140" height="26" as="geometry" />
        </mxCell>
        <mxCell id="SKzDFnQWlSCoSe0o_-la-9" value="+ field: type" style="text;strokeColor=none;fillColor=none;align=left;verticalAlign=top;spacingLeft=4;spacingRight=4;overflow=hidden;rotatable=0;points=[[0,0.5],[1,0.5]];portConstraint=eastwest;" vertex="1" parent="SKzDFnQWlSCoSe0o_-la-6">
          <mxGeometry y="78" width="140" height="26" as="geometry" />
        </mxCell>
        <mxCell id="SKzDFnQWlSCoSe0o_-la-21" value="Chessman" style="swimlane;fontStyle=0;childLayout=stackLayout;horizontal=1;startSize=26;fillColor=none;horizontalStack=0;resizeParent=1;resizeParentMax=0;resizeLast=0;collapsible=1;marginBottom=0;" vertex="1" parent="0BbyKiXWCxKaoy59D5gy-4">
          <mxGeometry x="43" y="170" width="140" height="104" as="geometry" />
        </mxCell>
        <mxCell id="SKzDFnQWlSCoSe0o_-la-22" value="code: number" style="text;strokeColor=none;fillColor=none;align=left;verticalAlign=top;spacingLeft=4;spacingRight=4;overflow=hidden;rotatable=0;points=[[0,0.5],[1,0.5]];portConstraint=eastwest;" vertex="1" parent="SKzDFnQWlSCoSe0o_-la-21">
          <mxGeometry y="26" width="140" height="26" as="geometry" />
        </mxCell>
        <mxCell id="SKzDFnQWlSCoSe0o_-la-23" value="label: string" style="text;strokeColor=none;fillColor=none;align=left;verticalAlign=top;spacingLeft=4;spacingRight=4;overflow=hidden;rotatable=0;points=[[0,0.5],[1,0.5]];portConstraint=eastwest;" vertex="1" parent="SKzDFnQWlSCoSe0o_-la-21">
          <mxGeometry y="52" width="140" height="26" as="geometry" />
        </mxCell>
        <mxCell id="SKzDFnQWlSCoSe0o_-la-24" value="order: number" style="text;strokeColor=none;fillColor=none;align=left;verticalAlign=top;spacingLeft=4;spacingRight=4;overflow=hidden;rotatable=0;points=[[0,0.5],[1,0.5]];portConstraint=eastwest;" vertex="1" parent="SKzDFnQWlSCoSe0o_-la-21">
          <mxGeometry y="78" width="140" height="26" as="geometry" />
        </mxCell>
        <mxCell id="SKzDFnQWlSCoSe0o_-la-26" value="Board" style="swimlane;fontStyle=0;childLayout=stackLayout;horizontal=1;startSize=26;fillColor=none;horizontalStack=0;resizeParent=1;resizeParentMax=0;resizeLast=0;collapsible=1;marginBottom=0;" vertex="1" parent="0BbyKiXWCxKaoy59D5gy-4">
          <mxGeometry x="223" y="40" width="140" height="104" as="geometry" />
        </mxCell>
        <mxCell id="SKzDFnQWlSCoSe0o_-la-27" value="+ field: type" style="text;strokeColor=none;fillColor=none;align=left;verticalAlign=top;spacingLeft=4;spacingRight=4;overflow=hidden;rotatable=0;points=[[0,0.5],[1,0.5]];portConstraint=eastwest;" vertex="1" parent="SKzDFnQWlSCoSe0o_-la-26">
          <mxGeometry y="26" width="140" height="26" as="geometry" />
        </mxCell>
        <mxCell id="SKzDFnQWlSCoSe0o_-la-28" value="+ field: type" style="text;strokeColor=none;fillColor=none;align=left;verticalAlign=top;spacingLeft=4;spacingRight=4;overflow=hidden;rotatable=0;points=[[0,0.5],[1,0.5]];portConstraint=eastwest;" vertex="1" parent="SKzDFnQWlSCoSe0o_-la-26">
          <mxGeometry y="52" width="140" height="26" as="geometry" />
        </mxCell>
        <mxCell id="SKzDFnQWlSCoSe0o_-la-29" value="+ field: type" style="text;strokeColor=none;fillColor=none;align=left;verticalAlign=top;spacingLeft=4;spacingRight=4;overflow=hidden;rotatable=0;points=[[0,0.5],[1,0.5]];portConstraint=eastwest;" vertex="1" parent="SKzDFnQWlSCoSe0o_-la-26">
          <mxGeometry y="78" width="140" height="26" as="geometry" />
        </mxCell>
        <mxCell id="SKzDFnQWlSCoSe0o_-la-30" style="edgeStyle=orthogonalEdgeStyle;rounded=0;orthogonalLoop=1;jettySize=auto;html=1;entryX=0;entryY=0.096;entryDx=0;entryDy=0;entryPerimeter=0;" edge="1" parent="0BbyKiXWCxKaoy59D5gy-4" source="SKzDFnQWlSCoSe0o_-la-7" target="SKzDFnQWlSCoSe0o_-la-21">
          <mxGeometry relative="1" as="geometry" />
        </mxCell>
      </root>
    </mxGraphModel>
  </diagram>
</mxfile>
